<?xml version="1.0" encoding="UTF-8"?><svg id="a" xmlns="http://www.w3.org/2000/svg" viewBox="0 0 304.57 193.24"><path d="M0,80.11V3.5C0,1.57,1.57,0,3.5,0h2.9c1.93,0,3.5,1.57,3.5,3.5V24.65c0,59.4,27.58,74.25,78.49,74.25h39.4c11.05,0,20,8.95,20,20v58.82c0,8.21-6.61,14.9-14.82,15l-43.87,.53C31.82,192.54,0,164.96,0,80.11Zm156.79,0V3.5C156.79,1.57,158.35,0,160.29,0h2.9c1.93,0,3.5,1.57,3.5,3.5V24.65c0,59.4,27.58,74.25,78.49,74.25h39.4c11.05,0,20,8.95,20,20v58.82c0,8.21-6.61,14.9-14.82,15l-43.87,.53c-57.28-.71-89.1-28.28-89.1-113.14Z"/></svg>