<?xml version="1.0" encoding="UTF-8"?><svg id="a" xmlns="http://www.w3.org/2000/svg" viewBox="0 0 857.15 250.31"><defs><style>.b{fill:#fff;}</style></defs><path d="M189.29,236.71c.09-3.55,4.34-3.85,6.63-8.14,1.64-3.08,1.19-3.58,1.53-11.78,.22-5.34,3.29-8.93,8.42-9.22,5.11-.29,5.97,3.96,6.74,7.27,2.84,12.38-4.79,24.61-16.94,27.41-.48,.12-.99,.1-1.46,.02h-.03c-2.28-.34-3.67-2.03-3.67-2.04-.91-1.1-1.24-2.48-1.21-3.52Z"/><path d="M850.34,179.54c-6.56-1.72-12.71,2.49-14.1,9.51-.32,1.6-.81,3.17-1.6,4.61-2.15,3.93-5.15,7.54-6.59,11.7-3.51,10.11-11.97,15.53-19.83,21.17-2.8,2.01-5.62,7.22-11.59,4.09,2.07-3.75,4.1-7.41,6.12-11.08,2.99-5.43,6.98-10.96,5.14-17.38-3.22-11.22-13.54-10.66-21.78-4.99-4.01,2.76-7.98,5.61-12.74,8.96,.7-2.19,1.16-3.48,1.52-4.8,2.53-9.14-2.15-17.05-10.28-17.83-8.24-.78-15.41,.67-20.72,7.76-1.34,1.79-3.43,3.02-5.22,4.47-7.14,5.78-14,11.98-21.53,17.18-6.37,4.39-13.27,8.28-20.42,11.18-6.16,2.5-11.89-4.13-9.7-9.55,2.94-7.28,7.36-14.01,11.51-20.74,5.82-9.43,11.49-19.02,18.16-27.83,4.76-6.29,10.13-13.26,16.87-16.68,16.5-8.39,33.4-15.92,48.57-26.71,5.85-4.16,12.34-7.51,17.75-12.15,5.52-4.73,12.22-8.67,13.95-16.9,1.66-7.92-.97-16.9-6.91-20.05-7.59-4.03-18.82-3.58-24.46,2.19-4,4.08-8.33,7.81-13.02,11.08-14.81,10.3-26.65,23.74-39.25,36.37-.55,.56-.77,1.43-1.26,2.08-7.97,10.52-14.37,22.15-27.98,27.54-10.47,4.14-19.65,11.44-29.95,16.14-6.5,2.97-13.86,6.48-21.28,1-1-.74-2.93-.46-4.4-.3-10.47,1.15-19.42,6.14-26.57,13.26-8.84,8.79-18.58,16.15-29.13,22.51-8.89,5.37-17.85,10.77-27.32,14.95-8.07,3.56-16.02,8.15-25.61,7.37-7.46-.61-11.92-7.38-8.03-13.93,5.07-8.52,10.38-16.93,16.07-25.04,2.02-2.88,5.27-5.04,8.32-6.97,1.34-.85,3.58-.3,5.41-.38-.07,2.01-.04,4.03-.28,6.02-.09,.73-1.23,1.37-1.23,2.05,0,2.84,.26,5.69,.42,8.53,2.4-.4,5.02-.32,7.17-1.29,4.94-2.24,6.7-7.09,7.55-11.89,1.12-6.27-4.54-13.57-10.7-15.33-6.52-1.86-12.02,1.67-17.81,3.18-5.05,1.32-9.21,4.43-12.35,9.15-3.35,5.03-7.37,9.78-11.81,13.89-10.13,9.38-22.25,15.84-34.57,21.86-1.64,.8-3.33,1.5-5.6,2.51,.57-1.48,.68-2.17,1.05-2.68,7.22-9.72,14.82-19.17,21.49-29.25,1.96-2.97,2.81-8.29,1.5-11.42-1.79-4.28-6.13-7.15-11.7-7.26-5.07-.1-7.55,1.94-8.46,6.79-.3,1.6-1.46,3.24-2.65,4.44-2.31,2.33-5.01,4.27-7.39,6.55-4.5,4.31-8.84,8.79-13.33,13.12-5,4.83-10.11,9.56-15.14,14.38-3.66,3.51-6.97,7.44-10.95,10.51-2.81,2.16-6.48,3.2-9.77,4.73-.43-1.97-.21-3.06,.37-3.89,4.11-5.89,8.41-11.64,12.42-17.59,2.69-3.99,4.65-8.52,7.58-12.31,6.12-7.92,12.83-15.39,18.92-23.33,1.35-1.76,2.12-5.12,1.36-7.03-.75-1.89-3.68-3.84-5.83-4.06-6.71-.7-12.42,2.56-17.37,6.61-8.56,6.99-16.69,14.51-25.12,21.67-7.57,6.43-15.16,12.86-23,18.94-6.73,5.22-13.65,10.27-20.89,14.75-2.55,1.58-6.9,3.19-9.27-.11-1.8-2.51-2.52-6.28-2.44-9.46,.05-2.09,2.27-4.21,3.72-6.17,10.72-14.47,21.63-28.81,32.1-43.47,1.4-1.96,.66-5.44,.91-8.22-2.84,.06-6.43-.99-8.37,.36-8.02,5.57-15.65,11.72-23.19,17.94-6.1,5.03-11.99,10.34-17.78,15.72-7.83,7.28-15.17,15.11-23.3,22.02-5.67,4.83-11.91,9.37-18.62,12.49-6.27,2.92-13.45,7.32-20.39,.25,4.21-3.35,8.3-6.39,12.14-9.7,12.16-10.47,20.15-24.3,28.03-37.78,10.13-17.33,19.65-35.3,26.69-54.03,4.39-11.69,8.75-23.21,14.76-34.1,2.48-4.5,5-9.25,8.59-12.79,3.8-3.74,8.9-6.14,13.41-9.17,6.57-4.42,13.23-8.72,19.63-13.38,5.3-3.85,10.38-8.02,15.35-12.28,3.21-2.75,6.05-5.92,9.04-8.92,2.33-2.34,5.24-4.35,6.84-7.11,4.19-7.24,1.9-19.61-6.62-23.22-9.69-4.1-18.83-3.34-27.48,2.6-2.68,1.84-5.89,3.46-7.61,6.03-5.33,7.96-10.06,16.32-15.03,24.52-6.32,10.4-12.49,20.9-19.07,31.13-1.91,2.97-4.62,5.78-7.61,7.61-7.57,4.65-15.43,8.83-23.31,12.95-7.6,3.98-15.13,8.24-23.1,11.33-12.38,4.8-25.15,8.61-37.68,13.04-12.36,4.37-24.6,9.07-36.97,13.42-2.16,.76-4.69,.46-7.61,.69,.4-1.31,.48-2.09,.85-2.69,4.36-7.03,8.74-14.05,13.15-21.05,5.03-7.97,10.11-15.9,15.14-23.86,4.15-6.57,8.1-13.26,12.43-19.71,5.37-7.99,11.08-15.75,16.56-23.66,3.36-4.85,2.91-9.73-1.32-14.04-3.85-3.91-7.55-2.67-11.32,.43-1.45,1.19-3.54,1.57-5.17,2.58-6.48,4.01-13.31,7.61-19.23,12.34-7.91,6.32-15.1,13.55-22.61,20.37-6.9,6.26-14,12.31-20.68,18.8-8.71,8.45-17.09,17.24-25.64,25.86-.85,.86-1.79,1.74-2.86,2.25-4.39,2.09-8.97,3.79-13.22,6.12-3.12,1.71-6.36,3.71-8.62,6.37-6.08,7.15-11.36,14.99-17.53,22.04-5.97,6.82-13.87,11.63-19.23,19.38-4.17,6.03-10.49,10.55-15.78,15.82-9.73,9.69-19.51,19.13-32.12,25.35-8.63,4.25-16.61,9.85-24.78,15-6.52,4.11-13.68,4.64-21.13,5.44-5.32,.57-8.05-1.34-10.44-4.9-1.84-2.74,.67-7.1,3.73-6.32,6.55,1.67,11.07-2.88,16.41-4.66,3.6-1.2,3.79-7.5,.45-9-6.59-2.95-13.53-4.68-20.06,.12-4.28,3.14-8.15,6.85-12.31,10.15-3.15,2.5-3.11,5.7-2.12,8.96,.93,3.06,2.41,5.95,3.58,8.94,3.78,9.62,20.92,17.05,29.83,13.19,13.43-5.81,26.82-11.56,38.53-20.69,6.28-4.89,13.79-8.24,19.89-13.31,11.23-9.33,21.9-19.35,31.62-30.32,2.15-2.43,5-4.26,7.07-6.74,6.03-7.26,11.75-14.77,17.83-21.98,.65-.78,3.59-.9,4.26-.19,6.9,7.38,15.5,7.08,24.25,5.5,6.96-1.26,13.81-3.13,21.22-4.85,.07,1.25,.51,2.46,.13,3.3-3.63,8.12-7.33,16.22-11.17,24.25-1.53,3.2-3.2,6.4-5.27,9.27-5.23,7.27-11.11,14.11-15.99,21.6-4.5,6.91-7.73,14.64-12.13,21.63-2.74,4.35-3.31,9.19-.34,12.24,3.11,3.19,8.24,4.58,12.72,6.06,.87,.29,3.08-2.44,4.14-4.11,.92-1.45,.79-3.53,1.61-5.07,2.38-4.42,5.5-8.5,7.46-13.09,5.01-11.75,9.02-23.95,14.42-35.5,5.69-12.2,12.25-24.03,19.03-35.67,2.14-3.68,5.73-7.23,9.52-9.05,4.71-2.26,10.4-2.38,15.51-3.94,7.59-2.32,15.02-5.17,22.56-7.64,7.84-2.58,15.77-4.88,23.61-7.48,19.68-6.53,38.15-15.82,56.56-25.22,2.94-1.5,5.74-3.25,8.61-4.89l1.02,.82c-.8,2.56-1.43,5.2-2.45,7.67-5.32,12.89-10.97,25.64-16.05,38.62-5.03,12.86-10.26,25.61-18.12,37.01-7.33,10.62-15.02,21.01-22.96,31.17-3.3,4.22-7.66,7.61-11.64,11.47-3.54-5.12-5.71-9.81-9.25-12.97-3.62-3.23-8.37-5.52-12.99-7.21-4.31-1.58-9.07-2.25-13.69-2.57-5.01-.35-16.69,9.04-17.17,13.96-.46,4.73-.26,9.52-.17,14.3,.04,2,1.21,3.8,3.03,4.63h0c.65,.3,1.26,.66,1.83,1.1,2.37,1.82,4.67,3.7,7.12,5.36,2.93,1.98,5.96,5.12,9.07,5.27,7.33,.35,14.73-.85,22.11-1.26,1.5-.08,3.27,.19,4.51,.95,6.26,3.88,13.51,3.05,20.28,4.48,1.21,.25,2.77-.8,4.07-1.43,3.98-1.91,7.72-4.67,11.91-5.74,10.29-2.62,14.25-13.16,23.01-17.52,.09-.05,.02-.37,.12-.47,6.02-5.65,12.06-11.3,18.09-16.94,.16,2.43-.4,4.37-1.2,6.22-.89,2.08-2.09,4.03-2.98,6.1-3.46,8.04,.18,17.05,8.16,20.49,2.08,.89,3.96,2.39,6.11,2.91,2.37,.57,5.29,1.17,7.35,.29,4.39-1.89,8.61-4.4,12.47-7.23,8.24-6.03,16.29-12.34,24.28-18.7,8.64-6.88,17.1-13.97,25.68-20.92,2.05-1.67,4.25-3.16,6.38-4.73l1.2,1.17c-2.78,3.94-5.82,7.73-8.29,11.86-6.17,10.3-12.47,20.56-17.82,31.29-1.34,2.69-.17,7.59,1.47,10.58,2.09,3.81,9.59,4.78,13.75,1.35,8.46-6.97,18.55-11.68,25.56-20.83,6.46-8.44,14.91-15.37,22.56-22.89,.57-.56,1.71-.53,3.5-1.03-2.29,3.63-3.75,6.74-5.93,9.24-3.99,4.58-6.46,9.85-7.24,15.7-.36,2.7-.07,6.88,1.62,8.15,3.31,2.5,7.52,4.77,12.26,2.21,10.27-5.55,20.6-10.98,30.92-16.44,.84-.44,1.75-.74,3.24-1.36-1.26,8.09,.82,14.75,6.02,20.33,3.74,4.02,7.26,6.88,13.97,5.94,5.78-.81,11.56,.03,17.58-2.15,10.99-3.97,21.68-7.71,30.18-16.42,3.53-3.61,8.89-5.43,14.49-8.7-1.44,5.31-2.59,9.32-3.6,13.37-3.64,14.51,4.6,21.79,17.64,21.54,10.01-.19,16-8.23,22.24-14.25,5.93-5.72,9.25-14.06,14.39-20.72,5.47-7.09,7.85-15.2,9.98-23.59,.88-3.44,2.84-5.55,6.77-6.84,7.22-2.36,14.1-5.84,20.99-9.13,4.52-2.16,8.8-4.81,13.19-7.23-1.17,4.16-3.13,7.56-5.08,10.97-2.87,5.02-5.89,9.96-8.58,15.08-4.64,8.8-11.25,16.91-8.49,28.15,1.17,4.75,4.13,7.42,7.47,10.4,7.82,6.99,10.49,8.38,21.44,1.7,6.19-3.78,12.16-7.94,18.09-12.11,5.34-3.76,10.61-7.64,15.73-11.7,6.04-4.79,11.81-9.94,17.91-14.65,1.06-.82,3.91-.97,4.62-.21,.96,1.03,1.35,3.56,.75,4.89-1.26,2.77-3.38,5.15-5.05,7.75-3.59,5.56-7.37,11.03-10.59,16.8-2.17,3.88-4.07,8.11-4.93,12.42-.33,1.64,2.24,4.46,4.16,5.72,1.12,.73,4.17,.03,5.32-1.08,5.66-5.46,11.09-11.17,16.37-17.01,5.75-6.36,12.51-11.08,20.79-14.02-.69,2.96-1.77,5.59-3.03,8.13-4.68,9.39-9.91,18.77-3.75,29.39,1.08,1.86,3.9,3.87,5.85,3.8,4.11-.15,8.25-1.4,12.25-2.62,3.84-1.18,7.46-3.05,11.27-4.33,5.99-2,11.48-4.28,15.9-9.41,4.53-5.25,10.71-9.04,15.55-14.06,7.01-7.26,10.05-16.93,13.93-25.96,2.75-6.4-.28-12.95-5.79-14.39Zm-84.5-73.32c6.38-5.02,12.49-10.38,18.76-15.54,1.38-1.13,2.83-2.71,4.41-2.94,2.62-.38,6.49-.87,7.83,.56,2.72,2.9,.99,6.56-1.9,8.82-12.65,9.88-25.31,19.74-38.24,29.24-3.84,2.82-8.57,4.42-12.9,6.58l-.91-1.07c6.55-9.51,13.74-18.42,22.94-25.65ZM387.2,49.66c6.31-10.02,12.7-19.99,19.22-29.87,4.76-7.21,11.68-9.68,20.08-8.27,3.64,.61,5.34,5.01,2.86,9.17-2.73,4.56-5.34,9.03-10.41,12.17-6.9,4.27-12.67,10.33-19.09,15.41-5.07,4.02-10.37,7.73-15.57,11.58l-1.62-1.36c1.5-2.95,2.78-6.04,4.54-8.83Zm-187.16,80.61c-.3,1.56-1.94,3.74-3.33,4.07-8.52,2.01-17.11,3.88-25.77,5.11-2.64,.38-6.23-.63-8.23-2.35-2.38-2.04-.82-5.21,.48-7.94,4.57-9.62,12.7-13.53,22.55-14.86,8.57-1.26,15.82,7.99,14.3,15.97Zm12.28-4.15c-2.02,2.86-3.33,1.38-4.07-.75-2.89-8.41-7.72-15.14-17.81-19.76,5.48-5.42,10.08-9.93,14.64-14.49,8.29-8.3,16.44-16.73,24.84-24.91,7.23-7.04,14.42-14.17,22.22-20.54,5.46-4.45,11.91-7.69,18.6-10.81-2.25,3.72-4.55,7.42-6.76,11.18-7.27,12.38-14.26,24.93-21.83,37.12-5.84,9.4-12.34,18.39-18.65,27.49-3.63,5.23-7.5,10.29-11.18,15.48Zm47.52,96.76c-.11,.63-1.92,.96-2.96,1.42-6.77,1.95-11.64-.71-15.9-5.46-3.42-3.81-1.81-10.79,3.01-12.1,1.15-.31,3.05,.3,3.93,1.18,3.71,3.72,7.22,7.64,10.67,11.61,.76,.88,1.43,2.32,1.25,3.35Zm384.71-21.01c-3.53,5.19-6.02,11.25-10.18,15.8-5.75,6.29-12.4,11.87-19.24,16.98-1.66,1.24-5.79-.12-8.38-1.22-.83-.35-.91-3.88-.41-5.69,3.9-14.12,12.36-25.08,23.95-33.83,4.66-3.52,9.1-7.33,13.98-11.28,4.65,7.33,4.38,13.23,.29,19.24Z"/><path d="M434.75,95.12c-1.88,9.71-6.2,16.19-13.37,20.51-1.35,.81-4.53,.4-5.61-.69-1.1-1.11-1.03-3.81-.79-5.73,.52-4.22,1.75-8.35,2.16-12.58,.59-6.2,7.58-12.45,12.37-8.96,2.54,1.85,3.85,5.38,5.25,7.45Z"/><path class="b" d="M190.45,105.6c5.48-5.42,10.08-9.93,14.64-14.49,8.29-8.3,16.44-16.73,24.84-24.91,7.23-7.04,14.42-14.17,22.22-20.54,5.46-4.45,11.91-7.69,18.6-10.81-2.25,3.72-4.55,7.42-6.76,11.18-7.27,12.38-14.26,24.93-21.83,37.12-5.84,9.4-12.34,18.39-18.65,27.49-3.63,5.23-7.5,10.29-11.18,15.48-2.03,2.86-3.33,1.38-4.07-.75-2.89-8.41-7.72-15.14-17.81-19.76Z"/><path class="b" d="M644.26,182.62c4.65,7.33,4.38,13.23,.29,19.24-3.53,5.19-6.02,11.25-10.18,15.8-5.75,6.29-12.4,11.87-19.24,16.98-1.66,1.24-5.79-.12-8.38-1.22-.83-.35-.91-3.88-.41-5.69,3.9-14.12,12.36-25.08,23.95-33.83,4.66-3.52,9.1-7.33,13.98-11.28Z"/><path class="b" d="M382.67,58.49c1.5-2.95,2.78-6.04,4.54-8.83,6.31-10.02,12.7-19.99,19.22-29.87,4.76-7.21,11.68-9.68,20.08-8.27,3.64,.61,5.34,5.01,2.86,9.17-2.73,4.56-5.34,9.03-10.41,12.17-6.9,4.27-12.67,10.33-19.09,15.41-5.06,4.01-10.36,7.72-15.56,11.57-.54-.45-1.09-.9-1.63-1.35Z"/><path class="b" d="M185.75,114.29c8.57-1.26,15.82,7.99,14.3,15.97-.3,1.56-1.94,3.74-3.33,4.07-8.52,2.01-17.11,3.88-25.77,5.11-2.64,.38-6.23-.63-8.23-2.35-2.38-2.04-.82-5.21,.48-7.94,4.57-9.62,12.7-13.53,22.55-14.86Z"/><path class="b" d="M743.06,131.63c6.51-9.42,13.66-18.24,22.78-25.41,6.38-5.02,12.49-10.38,18.76-15.54,1.38-1.13,2.83-2.71,4.41-2.94,2.62-.38,6.49-.87,7.83,.56,2.72,2.9,.99,6.56-1.9,8.82-12.65,9.88-25.31,19.74-38.24,29.24-3.84,2.82-8.57,4.42-12.9,6.58l-.75-1.31Z"/><path class="b" d="M256.88,224.3c-6.77,1.95-11.64-.71-15.9-5.46-3.42-3.81-1.81-10.79,3.01-12.1,1.15-.31,3.05,.3,3.93,1.18,3.71,3.72,7.22,7.64,10.67,11.61,.76,.88,1.43,2.32,1.25,3.35-.11,.63-1.92,.96-2.96,1.42Z"/></svg>